<svg width="24" height="24" viewBox="0 0 24 24" fill="none" xmlns="http://www.w3.org/2000/svg">
<path d="M7.5 12C7.5 10.5167 7.93988 9.0666 8.76398 7.83323C9.58808 6.59986 10.7594 5.63857 12.1299 5.07091C13.5004 4.50325 15.0083 4.35473 16.4632 4.64411C17.918 4.9335 19.2545 5.64781 20.3033 6.69671C21.3522 7.74563 22.0665 9.08198 22.3559 10.5368C22.6453 11.9917 22.4968 13.4997 21.9291 14.8701C21.3614 16.2406 20.4002 17.4119 19.1668 18.236C17.9334 19.0601 16.4834 19.5 15 19.5H6.75002C6.00549 19.4993 5.26964 19.3402 4.59129 19.0334C3.91294 18.7265 3.30762 18.2789 2.8155 17.7202C2.32339 17.1614 1.95573 16.5045 1.73693 15.7928C1.51814 15.0812 1.45322 14.3311 1.54647 13.5925C1.63973 12.8538 1.88902 12.1434 2.27781 11.5085C2.6666 10.8735 3.186 10.3285 3.80153 9.90968C4.41706 9.4908 5.11464 9.2076 5.84797 9.07898C6.5813 8.95035 7.33361 8.97915 8.05493 9.16343" stroke="#364E65" stroke-width="2" stroke-linecap="round" stroke-linejoin="round"/>
<path d="M2.25 16.5H11.25H21" stroke="#364E65" stroke-width="2"/>
</svg>
