<svg width="24" height="24" viewBox="0 0 24 24" fill="none" xmlns="http://www.w3.org/2000/svg">
<path d="M9.15564 21H15.1556" stroke="#BEC7D0" stroke-width="2" stroke-linecap="round" stroke-linejoin="round"/>
<path d="M5.4248 9.74994C5.42356 8.86045 5.59838 7.97951 5.93919 7.1579C6.28 6.33628 6.78006 5.59025 7.41054 4.9628C8.04101 4.33535 8.78945 3.83889 9.61269 3.50204C10.4359 3.16519 11.3177 2.99461 12.2072 3.00013C15.9187 3.02772 18.8875 6.11275 18.8875 9.83468V10.4999C18.8875 13.8577 19.59 15.8061 20.2087 16.871C20.2753 16.9848 20.3108 17.1142 20.3115 17.246C20.3122 17.3779 20.2781 17.5076 20.2127 17.6221C20.1473 17.7366 20.0528 17.8318 19.9388 17.8982C19.8249 17.9645 19.6954 17.9996 19.5635 17.9999H4.74798C4.6161 17.9996 4.48663 17.9645 4.37265 17.8981C4.25867 17.8318 4.1642 17.7366 4.09877 17.622C4.03335 17.5075 3.99928 17.3778 4.00001 17.2459C4.00074 17.114 4.03624 16.9846 4.10292 16.8709C4.72198 15.8059 5.4248 13.8575 5.4248 10.4999L5.4248 9.74994Z" stroke="#BEC7D0" stroke-width="2" stroke-linecap="round" stroke-linejoin="round"/>
</svg>
