<svg width="24" height="24" viewBox="0 0 24 24" fill="none" xmlns="http://www.w3.org/2000/svg">
<path d="M12 21C16.9706 21 21 16.9706 21 12C21 7.02944 16.9706 3 12 3C7.02944 3 3 7.02944 3 12C3 16.9706 7.02944 21 12 21Z" stroke="#BEC7D0" stroke-width="2"/>
<path d="M11.8594 11.625V16.875H11.1094H12.6094M11.1094 11.625H11.8594H11.1094ZM12.6094 11.625H11.8594H12.6094Z" stroke="#BEC7D0" stroke-width="2" stroke-linecap="round" stroke-linejoin="round"/>
<path d="M11.8594 9C12.2736 9 12.6094 8.66421 12.6094 8.25C12.6094 7.83579 12.2736 7.5 11.8594 7.5C11.4452 7.5 11.1094 7.83579 11.1094 8.25C11.1094 8.66421 11.4452 9 11.8594 9Z" fill="#BEC7D0" stroke="#BEC7D0"/>
</svg>
