<svg width="24" height="24" viewBox="0 0 24 24" fill="none" xmlns="http://www.w3.org/2000/svg">
<path d="M12 21C16.9706 21 21 16.9706 21 12C21 7.02944 16.9706 3 12 3C7.02944 3 3 7.02944 3 12C3 16.9706 7.02944 21 12 21Z" stroke="#BEC7D0" stroke-width="2" stroke-miterlimit="10"/>
<path d="M14.75 11.25C14.75 12.7688 13.5188 14 12 14C10.4812 14 9.25 12.7688 9.25 11.25C9.25 9.73122 10.4812 8.5 12 8.5C13.5188 8.5 14.75 9.73122 14.75 11.25Z" stroke="#BEC7D0" stroke-width="2" stroke-miterlimit="10"/>
<path d="M5.9812 18.6913C6.54615 17.5806 7.40744 16.6478 8.46973 15.9963C9.53202 15.3448 10.7539 15 12 15C13.2462 15 14.468 15.3448 15.5303 15.9963C16.5926 16.6478 17.4539 17.5806 18.0189 18.6913" stroke="#BEC7D0" stroke-width="2" stroke-linecap="round" stroke-linejoin="round"/>
</svg>
